<svg width="25" height="24" viewBox="0 0 25 24" fill="none" xmlns="http://www.w3.org/2000/svg">
<path d="M12.5 15.0068L9.5 12.0068M12.5 15.0068C13.8968 14.4756 15.2369 13.8056 16.5 13.0068M12.5 15.0068V20.0068C12.5 20.0068 15.53 19.4568 16.5 18.0068C17.58 16.3868 16.5 13.0068 16.5 13.0068M9.5 12.0068C10.0321 10.6263 10.7022 9.3029 11.5 8.05684C12.6652 6.19382 14.2876 4.65988 16.213 3.60093C18.1384 2.54197 20.3027 1.99321 22.5 2.00684C22.5 4.72684 21.72 9.50684 16.5 13.0068M9.5 12.0068H4.5C4.5 12.0068 5.05 8.97684 6.5 8.00684C8.12 6.92684 11.5 8.00684 11.5 8.00684M5 16.5068C3.5 17.7668 3 21.5068 3 21.5068C3 21.5068 6.74 21.0068 8 19.5068C8.71 18.6668 8.7 17.3768 7.91 16.5968C7.52131 16.2258 7.00929 16.0115 6.47223 15.9949C5.93516 15.9783 5.41088 16.1606 5 16.5068Z" stroke="black" stroke-width="2" stroke-linecap="round" stroke-linejoin="round"/>
</svg>
