<svg width="330" height="32" viewBox="0 0 330 32" fill="none" xmlns="http://www.w3.org/2000/svg">
    <path d="M0 6C0 2.68629 2.68629 0 6 0H26C29.3137 0 32 2.68629 32 6V26C32 29.3137 29.3137 32 26 32H6C2.68629 32 0 29.3137 0 26V6Z" fill="url(#paint0_linear_396_228)"/>
    <path d="M0 6C0 2.68629 2.68629 0 6 0H26C29.3137 0 32 2.68629 32 6V26C32 29.3137 29.3137 32 26 32H6C2.68629 32 0 29.3137 0 26V6Z" fill="url(#paint1_linear_396_228)"/>
    <path d="M4.97193 14.6684L3.56257 14.9004C3.37267 14.9318 3.20004 14.7871 3.20004 14.5974C3.20004 14.4076 3.37267 14.2629 3.56257 14.2936L4.97193 14.5257C5.05342 14.5393 5.05342 14.6547 4.97193 14.6684Z" fill="#E8B500"/>
    <path d="M5.51129 11.8464L4.11919 11.5276C3.93205 11.4846 3.82847 11.286 3.90167 11.1106C3.97556 10.9351 4.191 10.8669 4.35397 10.9672L5.56653 11.7147C5.63628 11.7577 5.59208 11.8648 5.51129 11.8464Z" fill="#E8B500"/>
    <path d="M7.10159 9.44363L5.93874 8.62244C5.78199 8.51186 5.76335 8.28933 5.89938 8.15485C6.03542 8.02038 6.26122 8.03881 6.37239 8.19376L7.2031 9.34328C7.25074 9.4095 7.16857 9.49141 7.1009 9.44431L7.10159 9.44363Z" fill="#E8B500"/>
    <path d="M9.50106 7.82514L8.74493 6.62647C8.64342 6.46538 8.71247 6.2524 8.88994 6.17936C9.0674 6.10632 9.26904 6.20871 9.31185 6.39438L9.63433 7.77053C9.65297 7.84972 9.54456 7.89408 9.50106 7.82514Z" fill="#E8B500"/>
    <path d="M12.3448 7.23739L12.11 5.84417C12.0782 5.65646 12.2246 5.4858 12.4173 5.4858C12.6092 5.4858 12.7556 5.65646 12.7246 5.84417L12.4898 7.23739C12.476 7.31794 12.3593 7.31794 12.3455 7.23739H12.3448Z" fill="#E8B500"/>
    <path d="M15.1994 7.77049L15.5218 6.39435C15.5653 6.20936 15.7663 6.10697 15.9438 6.17932C16.1212 6.25236 16.1903 6.46534 16.0888 6.62643L15.3326 7.8251C15.2891 7.89405 15.1807 7.85036 15.1994 7.77049Z" fill="#E8B500"/>
    <path d="M17.6307 9.34258L18.4615 8.19306C18.5733 8.03811 18.7984 8.01968 18.9345 8.15415C19.0705 8.28862 19.0519 8.51184 18.8951 8.62174L17.7323 9.44292C17.6653 9.49002 17.5824 9.40879 17.6301 9.3419L17.6307 9.34258Z" fill="#E8B500"/>
    <path d="M12.8006 8.62447C9.29961 8.62447 6.43392 11.3658 6.2896 14.7898H17.4271C17.4886 13.74 17.8988 12.7809 18.5451 12.0246C17.4451 10.0027 15.283 8.62447 12.8006 8.62447Z" fill="#E8B500"/>
    <path d="M26.4122 14.7899C26.2686 12.6164 24.4325 10.8901 22.1972 10.8894H22.1952C21.0289 10.8894 19.9717 11.359 19.2066 12.1161C19.0636 12.2574 18.9303 12.4089 18.8088 12.5693C18.3337 13.1973 18.032 13.9605 17.9774 14.7899H26.4122Z" fill="#ABD797"/>
    <path d="M6.29241 15.3332C6.59624 20.3341 15.1415 25.7683 16.3527 26.5144C17.5639 25.7683 26.1092 20.332 26.413 15.3332H6.29241Z" fill="#57B030"/>
    <path d="M38.5334 14.2824C38.5334 14.998 39.2892 15.3652 40.6177 15.4884C43.2951 15.7332 44.6638 16.7347 44.6638 18.8198C44.6638 20.905 42.8449 22.4979 39.9843 22.4979C37.389 22.4979 35.2636 21.1694 35.4887 17.9818H37.9411C37.8187 19.5962 38.7585 20.4136 40.0048 20.4136C41.3743 20.4136 42.0078 19.7391 42.0078 19.0646C42.0078 18.2677 41.3538 17.8586 39.9235 17.7156C37.0825 17.4503 35.8773 16.4077 35.8773 14.4869C35.8773 12.1776 37.9616 11.0948 40.0664 11.0948C42.4169 11.0948 44.419 12.2597 44.1947 14.8755H41.7424C41.7835 13.7517 41.1295 13.179 40.087 13.179C39.249 13.179 38.5343 13.649 38.5343 14.2824H38.5334Z" fill="#103328"/>
    <path d="M57.4366 18.2471L59.092 11.3806H62.0759L59.092 22.212H56.0063L53.595 14.9166L51.1838 22.212H48.098L45.1142 11.3806H48.098L49.7535 18.2471L51.9807 11.3806H55.2094L57.4366 18.2471Z" fill="#103328"/>
    <path d="M65.1822 6.33304C66.1425 6.33304 66.9189 7.1094 66.9189 8.06979C66.9189 9.03018 66.1425 9.80654 65.1822 9.80654C64.2218 9.80654 63.4454 9.03018 63.4454 8.06979C63.4454 7.1094 64.2218 6.33304 65.1822 6.33304ZM63.7921 11.3807H66.5714V22.212H63.7921V11.3807Z" fill="#103328"/>
    <path d="M73.1519 18.5332C73.1519 19.6571 73.7245 20.127 74.7252 20.127C75.2156 20.127 75.7677 20.0046 75.9312 19.9224L75.9518 22.1907C75.7061 22.2926 75.0521 22.4971 74.1945 22.4971C71.9056 22.4971 70.4137 21.3733 70.4137 19.0639V13.8528H68.4724V11.3799H70.4137V8.62113H73.1519V11.3799H76.1358V13.8528H73.1519V18.5332Z" fill="#103328"/>
    <path d="M83.3696 19.9643C85.0044 19.9643 85.8835 19.0449 86.0667 17.9202H88.9273C88.6414 20.3109 86.9244 22.4979 83.3482 22.4979C80.0373 22.4979 77.4831 20.2501 77.4831 16.7963C77.4831 13.3425 80.0373 11.0948 83.3482 11.0948C86.9244 11.0948 88.6414 13.2817 88.9273 15.6725H86.0667C85.8827 14.5486 85.0044 13.6293 83.3696 13.6293C81.5712 13.6293 80.2838 14.8755 80.2838 16.7972C80.2838 18.7188 81.5712 19.9651 83.3696 19.9651V19.9643Z" fill="#103328"/>
    <path d="M90.7266 5.86322H93.506V12.9549C94.201 11.6675 95.3857 11.0949 96.9392 11.0949C99.6364 11.0949 101.088 12.9746 101.088 14.9775V22.2121H98.3088V15.8771C98.3088 14.5076 97.4913 13.7107 96.0816 13.7107C94.5691 13.7107 93.5068 14.6711 93.5068 16.163V22.2121H90.7275V5.86322H90.7266Z" fill="#103328"/>
    <path d="M112.968 18.3094C112.968 19.4332 113.54 19.9032 114.541 19.9032C115.031 19.9032 115.583 19.7808 115.747 19.6986L115.768 21.9669C115.522 22.0687 114.868 22.2733 114.01 22.2733C111.721 22.2733 110.229 21.1494 110.229 18.84V13.6289H108.288V11.1561H110.229V8.3973H112.968V11.1561H115.952V13.6289H112.968V18.3094Z" fill="#103328"/>
    <path d="M117.301 16.5727C117.301 13.1189 119.691 10.8711 123.084 10.8711C126.477 10.8711 128.868 13.1189 128.868 16.5727C128.868 20.0265 126.477 22.2743 123.084 22.2743C119.691 22.2743 117.301 20.0265 117.301 16.5727ZM126.026 16.5727C126.026 14.693 124.841 13.487 123.083 13.487C121.326 13.487 120.141 14.693 120.141 16.5727C120.141 18.4524 121.326 19.6584 123.083 19.6584C124.841 19.6584 126.026 18.4524 126.026 16.5727Z" fill="#103328"/>
    <path d="M138.942 20.1489C138.308 21.0887 137.102 21.7838 135.467 21.7838C132.75 21.7838 130.318 19.5771 130.318 16.327C130.318 13.0769 132.75 10.8702 135.467 10.8702C137.429 10.8702 138.717 11.8512 139.391 13.1796V11.1561H141.68V21.64C141.68 24.5006 139.371 26.3606 136.06 26.3606C132.749 26.3606 130.767 24.5828 130.563 22.3145H133.26C133.444 23.173 134.159 24.1129 136.06 24.1129C137.961 24.1129 138.941 23.0703 138.941 21.8856V20.1489H138.942ZM135.978 13.3842C134.588 13.3842 133.097 14.3241 133.097 16.327C133.097 18.33 134.589 19.2493 135.978 19.2493C137.858 19.2493 138.942 18.0638 138.942 16.327C138.942 14.5903 137.859 13.3842 135.978 13.3842Z" fill="#103328"/>
    <path d="M143.254 16.5727C143.254 13.0983 145.727 10.8711 148.731 10.8711C151.734 10.8711 154.003 12.9554 154.003 16.5727C154.003 16.9613 153.942 17.3696 153.902 17.5125H146.075C146.218 19.0858 147.199 20.0265 148.813 20.0265C150.427 20.0265 151.081 19.2912 151.327 18.5551H153.922C153.616 20.4151 152.165 22.2743 148.833 22.2743C145.502 22.2743 143.254 20.0471 143.254 16.5727ZM151.142 15.4694C151.02 13.9363 150.08 13.1189 148.649 13.1189C147.217 13.1189 146.237 13.9774 146.115 15.4694H151.142Z" fill="#103328"/>
    <path d="M159.235 18.3094C159.235 19.4332 159.808 19.9032 160.808 19.9032C161.299 19.9032 161.851 19.7808 162.014 19.6986L162.035 21.9669C161.789 22.0687 161.135 22.2733 160.278 22.2733C157.989 22.2733 156.497 21.1494 156.497 18.84V13.6289H154.555V11.1561H156.497V8.3973H159.235V11.1561H162.219V13.6289H159.235V18.3094Z" fill="#103328"/>
    <path d="M164.18 5.63939H166.959V12.731C167.654 11.4437 168.839 10.871 170.392 10.871C173.09 10.871 174.541 12.7507 174.541 14.7537V21.9883H171.762V15.6533C171.762 14.2838 170.945 13.4869 169.535 13.4869C168.022 13.4869 166.96 14.4473 166.96 15.9392V21.9883H164.181V5.63939H164.18Z" fill="#103328"/>
    <path d="M176.156 16.5727C176.156 13.0983 178.629 10.8711 181.632 10.8711C184.636 10.8711 186.905 12.9554 186.905 16.5727C186.905 16.9613 186.843 17.3696 186.803 17.5125H178.976C179.119 19.0858 180.1 20.0265 181.714 20.0265C183.329 20.0265 183.983 19.2912 184.228 18.5551H186.824C186.517 20.4151 185.066 22.2743 181.735 22.2743C178.403 22.2743 176.156 20.0471 176.156 16.5727ZM184.043 15.4694C183.921 13.9363 182.981 13.1189 181.55 13.1189C180.119 13.1189 179.139 13.9774 179.016 15.4694H184.043Z" fill="#103328"/>
    <path d="M194.568 14.7743C194.568 13.855 194.037 13.2824 193.199 13.2824C192.156 13.2824 191.523 14.0793 191.523 15.2031V21.9875H188.743V11.1561H191.032V13.261C191.502 11.5644 192.708 10.8702 194.139 10.8702C195.773 10.8702 197.265 12.1782 197.143 14.7734H194.568V14.7743Z" fill="#103328"/>
    <path d="M198.594 18.7185C199.554 18.7185 200.331 19.4949 200.331 20.4552C200.331 21.4156 199.554 22.192 198.594 22.192C197.634 22.192 196.857 21.4156 196.857 20.4552C196.857 19.4949 197.634 18.7185 198.594 18.7185Z" fill="#103328"/>
    <line x1="209.38" y1="8.34213" x2="224.137" y2="23.0991" stroke="#D0D5DD"/>
    <line x1="223.989" y1="9.04923" x2="209.232" y2="23.8062" stroke="#D0D5DD"/>
    <path d="M241.182 14.8788C241.731 12.8333 243.833 10.7307 245.879 10.1825L258.631 6.76491C260.677 6.21674 261.891 7.43057 261.343 9.47608L257.925 22.2287C257.377 24.2742 255.274 26.3768 253.229 26.925L240.476 30.3426C238.431 30.8908 237.217 29.6769 237.765 27.6314L241.182 14.8788Z" fill="#57B030"/>
    <path d="M236.07 9.76623C236.618 7.72071 238.721 5.61812 240.766 5.06994L253.519 1.65236C255.564 1.10418 256.778 2.31802 256.23 4.36353L252.813 17.1162C252.264 19.1617 250.162 21.2643 248.116 21.8125L235.364 25.23C233.318 25.7782 232.104 24.5644 232.652 22.5189L236.07 9.76623Z" fill="#346C1F"/>
    <path d="M273.347 20.1421H277.528V22.6061H270.155V9.50214H273.347V20.1421Z" fill="#101828"/>
    <path d="M278.043 17.3795C278.043 16.3092 278.242 15.3697 278.64 14.5608C279.051 13.7519 279.604 13.1297 280.301 12.6941C280.998 12.2586 281.776 12.0408 282.635 12.0408C283.369 12.0408 284.01 12.1901 284.557 12.4888C285.117 12.7875 285.547 13.1795 285.845 13.6648V12.1901H289.037V22.6061H285.845V21.1315C285.534 21.6168 285.099 22.0088 284.539 22.3075C283.991 22.6061 283.35 22.7555 282.616 22.7555C281.77 22.7555 280.998 22.5377 280.301 22.1021C279.604 21.6541 279.051 21.0257 278.64 20.2168C278.242 19.3955 278.043 18.4497 278.043 17.3795ZM285.845 17.3981C285.845 16.6017 285.621 15.9732 285.173 15.5128C284.738 15.0524 284.203 14.8221 283.568 14.8221C282.933 14.8221 282.392 15.0524 281.944 15.5128C281.508 15.9608 281.291 16.583 281.291 17.3795C281.291 18.1759 281.508 18.8106 281.944 19.2835C282.392 19.7439 282.933 19.9741 283.568 19.9741C284.203 19.9741 284.738 19.7439 285.173 19.2835C285.621 18.823 285.845 18.1946 285.845 17.3981Z" fill="#101828"/>
    <path d="M301.613 12.1901L295.08 27.5528H291.645L294.035 22.2515L289.797 12.1901H293.363L295.771 18.7048L298.16 12.1901H301.613Z" fill="#101828"/>
    <path d="M312.213 17.2301C312.213 17.5288 312.194 17.8399 312.157 18.1635H304.933C304.983 18.8106 305.188 19.3084 305.549 19.6568C305.922 19.9928 306.376 20.1608 306.911 20.1608C307.708 20.1608 308.262 19.8248 308.573 19.1528H311.97C311.796 19.8372 311.479 20.4532 311.018 21.0008C310.57 21.5484 310.004 21.9777 309.319 22.2888C308.635 22.5999 307.87 22.7555 307.023 22.7555C306.003 22.7555 305.095 22.5377 304.298 22.1021C303.502 21.6666 302.879 21.0444 302.431 20.2355C301.983 19.4266 301.759 18.4808 301.759 17.3981C301.759 16.3155 301.977 15.3697 302.413 14.5608C302.861 13.7519 303.483 13.1297 304.279 12.6941C305.076 12.2586 305.991 12.0408 307.023 12.0408C308.031 12.0408 308.927 12.2524 309.711 12.6755C310.495 13.0986 311.105 13.7021 311.541 14.4861C311.989 15.2701 312.213 16.1848 312.213 17.2301ZM308.946 16.3901C308.946 15.8426 308.759 15.407 308.386 15.0835C308.013 14.7599 307.546 14.5981 306.986 14.5981C306.451 14.5981 305.997 14.7537 305.623 15.0648C305.263 15.3759 305.039 15.8177 304.951 16.3901H308.946Z" fill="#101828"/>
    <path d="M316.715 13.9261C317.089 13.3537 317.555 12.9057 318.115 12.5821C318.675 12.2461 319.298 12.0781 319.982 12.0781V15.4568H319.105C318.308 15.4568 317.711 15.631 317.313 15.9795C316.915 16.3155 316.715 16.9128 316.715 17.7715V22.6061H313.523V12.1901H316.715V13.9261Z" fill="#101828"/>
    <path d="M325.372 22.7555C324.463 22.7555 323.654 22.5999 322.945 22.2888C322.236 21.9777 321.676 21.5546 321.265 21.0195C320.854 20.4719 320.624 19.8621 320.574 19.1901H323.729C323.766 19.551 323.934 19.8435 324.233 20.0675C324.532 20.2915 324.899 20.4035 325.334 20.4035C325.733 20.4035 326.038 20.3288 326.249 20.1795C326.473 20.0177 326.585 19.8124 326.585 19.5635C326.585 19.2648 326.43 19.047 326.118 18.9101C325.807 18.7608 325.303 18.599 324.606 18.4248C323.86 18.2506 323.238 18.0701 322.74 17.8835C322.242 17.6844 321.813 17.3795 321.452 16.9688C321.091 16.5457 320.91 15.9795 320.91 15.2701C320.91 14.6728 321.072 14.1315 321.396 13.6461C321.732 13.1484 322.217 12.7564 322.852 12.4701C323.499 12.1839 324.264 12.0408 325.148 12.0408C326.454 12.0408 327.481 12.3644 328.228 13.0115C328.987 13.6586 329.422 14.5172 329.534 15.5875H326.585C326.535 15.2266 326.374 14.9404 326.1 14.7288C325.838 14.5172 325.49 14.4115 325.054 14.4115C324.681 14.4115 324.395 14.4861 324.196 14.6355C323.997 14.7724 323.897 14.9652 323.897 15.2141C323.897 15.5128 324.053 15.7368 324.364 15.8861C324.687 16.0355 325.185 16.1848 325.857 16.3341C326.629 16.5332 327.257 16.7324 327.742 16.9315C328.228 17.1181 328.651 17.4292 329.012 17.8648C329.385 18.2879 329.578 18.8604 329.59 19.5821C329.59 20.1919 329.416 20.7395 329.068 21.2248C328.732 21.6977 328.24 22.071 327.593 22.3448C326.958 22.6186 326.218 22.7555 325.372 22.7555Z" fill="#101828"/>
    <defs>
        <linearGradient id="paint0_linear_396_228" x1="184.818" y1="32" x2="177.525" y2="-21.925" gradientUnits="userSpaceOnUse">
            <stop stop-color="#103328"/>
            <stop offset="1" stop-color="#2A6F59"/>
        </linearGradient>
        <linearGradient id="paint1_linear_396_228" x1="184.818" y1="32" x2="177.525" y2="-21.925" gradientUnits="userSpaceOnUse">
            <stop stop-color="#103328"/>
            <stop offset="1" stop-color="#2A6F59"/>
        </linearGradient>
    </defs>
</svg>
