<svg width="165" height="38" viewBox="0 0 165 38" fill="none" xmlns="http://www.w3.org/2000/svg">
<g filter="url(#filter0_dd_438_482)">
<path d="M3 8C3 4.68629 5.68629 2 9 2H29C32.3137 2 35 4.68629 35 8V28C35 31.3137 32.3137 34 29 34H9C5.68629 34 3 31.3137 3 28V8Z" fill="url(#paint0_linear_438_482)"/>
<path d="M3 8C3 4.68629 5.68629 2 9 2H29C32.3137 2 35 4.68629 35 8V28C35 31.3137 32.3137 34 29 34H9C5.68629 34 3 31.3137 3 28V8Z" fill="url(#paint1_linear_438_482)"/>
<path d="M7.97193 16.6684L6.56257 16.9004C6.37267 16.9318 6.20004 16.7871 6.20004 16.5974C6.20004 16.4076 6.37267 16.2629 6.56257 16.2936L7.97193 16.5257C8.05342 16.5393 8.05342 16.6547 7.97193 16.6684Z" fill="#E8B500"/>
<path d="M8.51129 13.8464L7.11919 13.5276C6.93205 13.4846 6.82847 13.286 6.90167 13.1106C6.97556 12.9351 7.191 12.8669 7.35397 12.9672L8.56653 13.7147C8.63628 13.7577 8.59208 13.8648 8.51129 13.8464Z" fill="#E8B500"/>
<path d="M10.1016 11.4436L8.93874 10.6224C8.78199 10.5119 8.76335 10.2893 8.89938 10.1549C9.03542 10.0204 9.26122 10.0388 9.37239 10.1938L10.2031 11.3433C10.2507 11.4095 10.1686 11.4914 10.1009 11.4443L10.1016 11.4436Z" fill="#E8B500"/>
<path d="M12.5011 9.82514L11.7449 8.62647C11.6434 8.46538 11.7125 8.2524 11.8899 8.17936C12.0674 8.10632 12.269 8.20871 12.3119 8.39438L12.6343 9.77053C12.653 9.84972 12.5446 9.89408 12.5011 9.82514Z" fill="#E8B500"/>
<path d="M15.3448 9.23739L15.11 7.84417C15.0782 7.65646 15.2246 7.4858 15.4173 7.4858C15.6092 7.4858 15.7556 7.65646 15.7246 7.84417L15.4898 9.23739C15.476 9.31794 15.3593 9.31794 15.3455 9.23739H15.3448Z" fill="#E8B500"/>
<path d="M18.1994 9.77049L18.5218 8.39435C18.5653 8.20936 18.7663 8.10697 18.9438 8.17932C19.1212 8.25236 19.1903 8.46534 19.0888 8.62643L18.3326 9.8251C18.2891 9.89405 18.1807 9.85036 18.1994 9.77049Z" fill="#E8B500"/>
<path d="M20.6307 11.3426L21.4615 10.1931C21.5733 10.0381 21.7984 10.0197 21.9345 10.1542C22.0705 10.2886 22.0519 10.5118 21.8951 10.6217L20.7323 11.4429C20.6653 11.49 20.5824 11.4088 20.6301 11.3419L20.6307 11.3426Z" fill="#E8B500"/>
<path d="M15.8006 10.6245C12.2996 10.6245 9.43392 13.3658 9.2896 16.7898H20.4271C20.4886 15.74 20.8988 14.7809 21.5451 14.0246C20.4451 12.0027 18.283 10.6245 15.8006 10.6245Z" fill="#E8B500"/>
<path d="M29.4122 16.7899C29.2686 14.6164 27.4325 12.8901 25.1972 12.8894H25.1952C24.0289 12.8894 22.9717 13.359 22.2066 14.1161C22.0636 14.2574 21.9303 14.4089 21.8088 14.5693C21.3337 15.1973 21.032 15.9605 20.9774 16.7899H29.4122Z" fill="#ABD797"/>
<path d="M9.29241 17.3332C9.59624 22.3341 18.1415 27.7683 19.3527 28.5144C20.5639 27.7683 29.1092 22.332 29.413 17.3332H9.29241Z" fill="#57B030"/>
</g>
<line x1="44.0492" y1="10.3421" x2="58.8062" y2="25.0991" stroke="#D0D5DD"/>
<line x1="58.6579" y1="11.0492" x2="43.9009" y2="25.8062" stroke="#D0D5DD"/>
<path d="M75.8517 16.8788C76.3999 14.8333 78.5025 12.7307 80.548 12.1825L93.3006 8.76491C95.3461 8.21674 96.56 9.43057 96.0118 11.4761L92.5942 24.2287C92.046 26.2742 89.9434 28.3768 87.8979 28.925L75.1453 32.3426C73.0998 32.8908 71.8859 31.6769 72.4341 29.6314L75.8517 16.8788Z" fill="#57B030"/>
<path d="M70.7393 11.7662C71.2874 9.72071 73.39 7.61812 75.4355 7.06994L88.1882 3.65236C90.2337 3.10418 91.4476 4.31802 90.8994 6.36353L87.4818 19.1162C86.9336 21.1617 84.831 23.2643 82.7855 23.8125L70.0328 27.23C67.9873 27.7782 66.7735 26.5644 67.3217 24.5189L70.7393 11.7662Z" fill="#346C1F"/>
<path d="M108.016 22.1421H112.197V24.6061H104.824V11.5021H108.016V22.1421Z" fill="#101828"/>
<path d="M112.712 19.3795C112.712 18.3092 112.911 17.3697 113.309 16.5608C113.72 15.7519 114.274 15.1297 114.971 14.6941C115.667 14.2586 116.445 14.0408 117.304 14.0408C118.038 14.0408 118.679 14.1901 119.227 14.4888C119.787 14.7875 120.216 15.1795 120.515 15.6648V14.1901H123.707V24.6061H120.515V23.1315C120.203 23.6168 119.768 24.0088 119.208 24.3075C118.66 24.6061 118.019 24.7555 117.285 24.7555C116.439 24.7555 115.667 24.5377 114.971 24.1021C114.274 23.6541 113.72 23.0257 113.309 22.2168C112.911 21.3955 112.712 20.4497 112.712 19.3795ZM120.515 19.3981C120.515 18.6017 120.291 17.9732 119.843 17.5128C119.407 17.0524 118.872 16.8221 118.237 16.8221C117.603 16.8221 117.061 17.0524 116.613 17.5128C116.178 17.9608 115.96 18.583 115.96 19.3795C115.96 20.1759 116.178 20.8106 116.613 21.2835C117.061 21.7439 117.603 21.9741 118.237 21.9741C118.872 21.9741 119.407 21.7439 119.843 21.2835C120.291 20.823 120.515 20.1946 120.515 19.3981Z" fill="#101828"/>
<path d="M136.282 14.1901L129.749 29.5528H126.314L128.704 24.2515L124.466 14.1901H128.032L130.44 20.7048L132.829 14.1901H136.282Z" fill="#101828"/>
<path d="M146.882 19.2301C146.882 19.5288 146.863 19.8399 146.826 20.1635H139.602C139.652 20.8106 139.857 21.3084 140.218 21.6568C140.591 21.9928 141.046 22.1608 141.581 22.1608C142.377 22.1608 142.931 21.8248 143.242 21.1528H146.639C146.465 21.8372 146.148 22.4532 145.687 23.0008C145.239 23.5484 144.673 23.9777 143.989 24.2888C143.304 24.5999 142.539 24.7555 141.693 24.7555C140.672 24.7555 139.764 24.5377 138.967 24.1021C138.171 23.6666 137.549 23.0444 137.101 22.2355C136.653 21.4266 136.429 20.4808 136.429 19.3981C136.429 18.3155 136.647 17.3697 137.082 16.5608C137.53 15.7519 138.152 15.1297 138.949 14.6941C139.745 14.2586 140.66 14.0408 141.693 14.0408C142.701 14.0408 143.597 14.2524 144.381 14.6755C145.165 15.0986 145.775 15.7021 146.21 16.4861C146.658 17.2701 146.882 18.1848 146.882 19.2301ZM143.615 18.3901C143.615 17.8426 143.429 17.407 143.055 17.0835C142.682 16.7599 142.215 16.5981 141.655 16.5981C141.12 16.5981 140.666 16.7537 140.293 17.0648C139.932 17.3759 139.708 17.8177 139.621 18.3901H143.615Z" fill="#101828"/>
<path d="M151.385 15.9261C151.758 15.3537 152.225 14.9057 152.785 14.5821C153.345 14.2461 153.967 14.0781 154.651 14.0781V17.4568H153.774C152.978 17.4568 152.38 17.631 151.982 17.9795C151.584 18.3155 151.385 18.9128 151.385 19.7715V24.6061H148.193V14.1901H151.385V15.9261Z" fill="#101828"/>
<path d="M160.041 24.7555C159.133 24.7555 158.324 24.5999 157.614 24.2888C156.905 23.9777 156.345 23.5546 155.934 23.0195C155.524 22.4719 155.294 21.8621 155.244 21.1901H158.398C158.436 21.551 158.604 21.8435 158.902 22.0675C159.201 22.2915 159.568 22.4035 160.004 22.4035C160.402 22.4035 160.707 22.3288 160.918 22.1795C161.142 22.0177 161.254 21.8124 161.254 21.5635C161.254 21.2648 161.099 21.047 160.788 20.9101C160.477 20.7608 159.973 20.599 159.276 20.4248C158.529 20.2506 157.907 20.0701 157.409 19.8835C156.911 19.6844 156.482 19.3795 156.121 18.9688C155.76 18.5457 155.58 17.9795 155.58 17.2701C155.58 16.6728 155.742 16.1315 156.065 15.6461C156.401 15.1484 156.886 14.7564 157.521 14.4701C158.168 14.1839 158.933 14.0408 159.817 14.0408C161.124 14.0408 162.15 14.3644 162.897 15.0115C163.656 15.6586 164.092 16.5172 164.204 17.5875H161.254C161.205 17.2266 161.043 16.9404 160.769 16.7288C160.508 16.5172 160.159 16.4115 159.724 16.4115C159.35 16.4115 159.064 16.4861 158.865 16.6355C158.666 16.7724 158.566 16.9652 158.566 17.2141C158.566 17.5128 158.722 17.7368 159.033 17.8861C159.357 18.0355 159.854 18.1848 160.526 18.3341C161.298 18.5332 161.926 18.7324 162.412 18.9315C162.897 19.1181 163.32 19.4292 163.681 19.8648C164.054 20.2879 164.247 20.8604 164.26 21.5821C164.26 22.1919 164.086 22.7395 163.737 23.2248C163.401 23.6977 162.91 24.071 162.262 24.3448C161.628 24.6186 160.887 24.7555 160.041 24.7555Z" fill="#101828"/>
<defs>
<filter id="filter0_dd_438_482" x="0" y="0" width="38" height="38" filterUnits="userSpaceOnUse" color-interpolation-filters="sRGB">
<feFlood flood-opacity="0" result="BackgroundImageFix"/>
<feColorMatrix in="SourceAlpha" type="matrix" values="0 0 0 0 0 0 0 0 0 0 0 0 0 0 0 0 0 0 127 0" result="hardAlpha"/>
<feOffset dy="1"/>
<feGaussianBlur stdDeviation="1"/>
<feColorMatrix type="matrix" values="0 0 0 0 0.0627451 0 0 0 0 0.0941176 0 0 0 0 0.156863 0 0 0 0.06 0"/>
<feBlend mode="normal" in2="BackgroundImageFix" result="effect1_dropShadow_438_482"/>
<feColorMatrix in="SourceAlpha" type="matrix" values="0 0 0 0 0 0 0 0 0 0 0 0 0 0 0 0 0 0 127 0" result="hardAlpha"/>
<feOffset dy="1"/>
<feGaussianBlur stdDeviation="1.5"/>
<feColorMatrix type="matrix" values="0 0 0 0 0.0627451 0 0 0 0 0.0941176 0 0 0 0 0.156863 0 0 0 0.1 0"/>
<feBlend mode="normal" in2="effect1_dropShadow_438_482" result="effect2_dropShadow_438_482"/>
<feBlend mode="normal" in="SourceGraphic" in2="effect2_dropShadow_438_482" result="shape"/>
</filter>
<linearGradient id="paint0_linear_438_482" x1="32.522" y1="34" x2="5.44261" y2="2.01487" gradientUnits="userSpaceOnUse">
<stop stop-color="#103328"/>
<stop offset="1" stop-color="#2A6F59"/>
</linearGradient>
<linearGradient id="paint1_linear_438_482" x1="32.522" y1="34" x2="5.44261" y2="2.01487" gradientUnits="userSpaceOnUse">
<stop stop-color="#103328"/>
<stop offset="1" stop-color="#2A6F59"/>
</linearGradient>
</defs>
</svg>
