<svg width="20" height="16" viewBox="0 0 20 16" fill="none" xmlns="http://www.w3.org/2000/svg">
<g clip-path="url(#clip0_438_675)">
<path d="M20 1.6L19.9906 1.98125C19.1125 2.00625 18.5844 2.475 18.2469 3.24062C17.4656 5.04688 15.0187 10.7406 13.3937 14.4469H12.9687L10.4094 8.4125C9.39375 10.4 8.275 12.475 7.30937 14.4469C7.3 14.4562 6.84062 14.4469 6.84062 14.4375C5.375 11.0094 3.8375 7.60625 2.36875 4.16875C2.0125 3.33437 0.824997 1.98125 0.00624695 1.99063C0.00624695 1.89375 -0.00312805 1.67812 -0.00312805 1.54688H5.05625V1.98125C4.45625 2.01563 3.40625 2.39687 3.70312 3.05C4.3875 4.60313 6.94062 10.5594 7.62812 12.0688C8.09687 11.1406 9.43437 8.65625 9.98125 7.60625C9.54687 6.72187 8.15 3.42188 7.70625 2.60625C7.40312 2.05 6.57812 2 5.9625 1.99063V1.55625L10.4156 1.56562V1.975C9.80937 1.99375 9.225 2.21875 9.49687 2.79063C10.0875 4.04063 10.4531 4.91875 11 6.0625C11.175 5.725 12.0844 3.89375 12.5031 2.9125C12.7812 2.26875 12.3812 2.01875 11.2969 1.99375C11.3062 1.88125 11.2969 1.67188 11.3062 1.56875C12.6937 1.55938 14.7781 1.55937 15.1531 1.55V1.975C14.45 2 13.7219 2.375 13.3375 2.96563L11.4875 6.80312C11.6875 7.30625 13.4656 11.2656 13.65 11.7L17.475 2.86875C17.2062 2.14688 16.3375 1.99062 16 1.98438V1.55L19.9937 1.58438L20 1.6Z" fill="black"/>
</g>
<defs>
<clipPath id="clip0_438_675">
<rect width="20" height="16" fill="white"/>
</clipPath>
</defs>
</svg>
